{
.appVersion = "3151";
.formatVersion = 3;
customParameters = (
{
name = vendorID;
value = ADBO;
},
{
name = panose;
value = (
2,
11,
2,
0,
0,
0,
0,
0,
0,
0
);
},
{
name = unicodeRanges;
value = (
0,
1,
7,
29,
36,
42,
43,
44,
45,
48,
49,
50,
51,
52,
54,
55,
57,
59,
61,
65,
66,
68
);
},
{
name = codePageRanges;
value = (
"1252",
"1250",
"1251",
"1258",
"932",
"936",
"bit 29",
"bit 30"
);
},
{
name = fsType;
value = (
);
}
);
date = "2021-04-29 08:43:11 +0000";
familyName = "Yaku Han JP";
featurePrefixes = (
{
automatic = 1;
code = "languagesystem DFLT dflt;
";
name = Languagesystems;
}
);
features = (
{
automatic = 1;
code = "feature vert;
feature vrt2;
";
tag = aalt;
},
{
code = "sub comma-han by comma-han.vert;
sub period-han by period-han.vert;
sub colon.full by colon.full.vert;
sub blacklenticularbracketleft by blacklenticularbracketleft.vert;
sub blacklenticularbracketright by blacklenticularbracketright.vert;
sub cornerbracketleft by cornerbracketleft.vert;
sub cornerbracketright by cornerbracketright.vert;
sub dblanglebracketleft by dblanglebracketleft.vert;
sub dblanglebracketright by dblanglebracketright.vert;
sub tortoiseshellbracketleft by tortoiseshellbracketleft.vert;
sub tortoiseshellbracketright by tortoiseshellbracketright.vert;
sub whitecornerbracketleft by whitecornerbracketleft.vert;
sub whitecornerbracketright by whitecornerbracketright.vert;
sub whitelenticularbracketleft by whitelenticularbracketleft.vert;
sub whitelenticularbracketright by whitelenticularbracketright.vert;
sub braceleft.full by braceleft.full.vert;
sub braceright.full by braceright.full.vert;
sub bracketleft.full by bracketleft.full.vert;
sub bracketright.full by bracketright.full.vert;
sub parenleft.full by parenleft.full.vert;
sub parenright.full by parenright.full.vert;
sub angleLeft by anglebracketleft.vert;
sub angleRight by anglebracketright.vert;";
tag = vert;
},
{
automatic = 1;
code = "sub comma-han by comma-han.vert;
sub period-han by period-han.vert;

glyphs = (
{
glyphname = .notdef;
layers = (
{
layerId = m01;
shapes = (
{
closed = 1;
nodes = (
(900,880,l),
(100,880,l),
(100,-120,l),
(900,-120,l)
);
},
{
closed = 1;
nodes = (
(818,830,l),
(500,421,l),
(182,830,l)
);
},
{
closed = 1;
nodes = (
(850,-29,l),
(532,380,l),
(850,789,l)
);
},
{
closed = 1;
nodes = (
(818,-70,l),
(182,-70,l),
(500,339,l)
);
},
{
closed = 1;
nodes = (
(150,-29,l),
(150,789,l),
(468,380,l)
);
}
);
vertWidth = 1000;
width = 1000;
}
);
note = ".notdef";
},
{
glyphname = "comma-han";
layers = (
{
layerId = m01;
shapes = (
{
closed = 1;
nodes = (
(329,50,o),
(254,130,o),
(172,208,o),
(137,237,q),
(43,156,l),
(79,127,o),
(155,52,o),
(230,-27,o),
(260,-65,q),
(356,17,l)
);
}
);
vertWidth = 1000;
width = 1000;
}
);
note = uni3001;
unicode = 12289;
},
{
glyphname = "comma-han.vert";
layers = (
{
layerId = m01;
shapes = (
{
closed = 1;
nodes = (
(926,651,o),
(852,729,o),
(772,805,o),
(737,833,q),
(645,755,l),
(697,711,o),
(813,593,o),
(859,538,q),
(953,618,l)
);
}
);
vertWidth = 1000;
width = 1000;
}
);
note = uniFE11;
unicode = 65041;
},
{
glyphname = "period-han";
layers = (
{
layerId = m01;
shapes = (
{
closed = 1;
nodes = (
(78,204,o),
(35,132,o),
(35,88,qs),
(35,44,o),
(78,-28,o),
(150,-71,o),
(194,-71,qs),
(238,-71,o),
(310,-28,o),
(353,44,o),
(353,88,qs),
(353,132,o),
(310,204,o),
(238,247,o),
(194,247,qs),
(150,247,o)
);
},
{
closed = 1;
nodes = (
(126,19,o),
(101,62,o),
(101,88,qs),
(101,113,o),
(126,156,o),
(169,181,o),
(194,181,qs),
(220,181,o),
(262,156,o),
(287,113,o),
(287,88,qs),
(287,49,o),
(233,-5,o),
(194,-5,qs),
(168,-5,o)
);
}
);
vertWidth = 1000;
width = 1000;
}
);
note = uni3002;
unicode = 12290;
},
{
glyphname = "period-han.vert";
layers = (
{
layerId = m01;
shapes = (
{
closed = 1;
nodes = (
(685,780,o),
(642,708,o),
(642,665,qs),
(642,622,o),
(685,552,o),
(756,509,o),
(799,509,qs),
(842,509,o),
(913,552,o),
(955,622,o),
(955,665,qs),
(955,709,o),
(913,780,o),
(842,822,o),
(799,822,qs),
(756,822,o)
);
},
{
closed = 1;
nodes = (
(732,599,o),
(708,640,o),
(708,666,qs),
(708,691,o),
(732,732,o),
(774,756,o),
(799,756,qs),
(824,756,o),
(865,732,o),
(890,691,o),
(890,665,qs),
(890,627,o),
(837,574,o),
(798,574,qs),
(774,574,o)
);
}
);
vertWidth = 1000;
width = 1000;
}
);
note = uniFE12;
unicode = 65042;
},
{
glyphname = hyphenationpoint;
layers = (
{
layerId = m01;
shapes = (
{
closed = 1;
nodes = (
(411,469,o),
(378,414,o),
(378,380,qs),
(378,347,o),
(411,291,o),
(467,258,o),
(500,258,qs),
(534,258,o),
(589,291,o),
(622,347,o),
(622,380,qs),
(622,414,o),
(589,469,o),
(534,502,o),
(500,502,qs),
(467,502,o)
);
}
);
vertWidth = 1000;
width = 1000;
}
);
note = uni2027;
unicode = (8231,12539);
},
{
glyphname = colon.full;
layers = (
{
layerId = m01;
shapes = (
{
closed = 1;
nodes = (
(590,574,o),
(590,612,qs),
(590,651,o),
(537,701,o),
(500,701,qs),
(463,701,o),
(410,651,o),
(410,612,qs),
(410,574,o),
(463,524,o),
(500,524,qs),
(537,524,o)
);
},
{
closed = 1;
nodes = (
(590,93,o),
(590,131,qs),
(590,171,o),
(537,221,o),
(500,221,qs),
(463,221,o),
(410,171,o),
(410,131,qs),
(410,93,o),
(463,43,o),
(500,43,qs),
(537,43,o)
);
}
);
vertWidth = 1000;
width = 1000;
}
);
note = uniFF1A;
unicode = 65306;
},
{
glyphname = exclam.full;
layers = (
{
layerId = m01;
shapes = (
{
closed = 1;
nodes = (
(571,608,l),
(575,748,l),
(425,748,l),
(429,608,l),
(454,253,l),
(546,253,l)
);
},
{
closed = 1;
nodes = (
(582,38,o),
(582,74,qs),
(582,111,o),
(534,156,o),
(500,156,qs),
(466,156,o),
(418,111,o),
(418,74,qs),
(418,38,o),
(465,-8,o),
(500,-8,qs),
(534,-8,o)
);
}
);
vertWidth = 1000;
width = 1000;
}
);
note = uniFF01;
unicode = 65281;
},
{
glyphname = question.full;
layers = (
{
layerId = m01;
shapes = (
{
closed = 1;
nodes = (
(541,288,o),
(567,342,o),
(614,385,o),
(670,427,o),
(719,471,o),
(751,527,o),
(751,564,qs),
(751,628,o),
(688,716,o),
(578,761,o),
(506,761,qs),
(426,761,o),
(298,695,o),
(249,640,q),
(323,572,l),
(362,613,o),
(444,654,o),
(491,654,qs),
(534,654,o),
(594,629,o),
(625,584,o),
(625,552,qs),
(625,527,o),
(593,485,o),
(545,446,o),
(491,404,o),
(447,355,o),
(424,293,o),
(430,253,q),
(546,253,l)
);
},
{
closed = 1;
nodes = (
(570,38,o),
(570,74,qs),
(570,111,o),
(523,156,o),
(489,156,qs),
(454,156,o),
(407,111,o),
(407,74,qs),
(407,38,o),
(454,-8,o),
(489,-8,qs),
(523,-8,o)
);
}
);
vertWidth = 1000;
width = 1000;
}
);
note = uniFF1F;
unicode = 65311;
},
{
glyphname = semicolon.full;
layers = (
{
layerId = m01;
shapes = (
{
closed = 1;
nodes = (
(608,41,o),
(608,132,qs),
(608,198,o),
(555,274,o),
(505,274,qs),
(469,274,o),
(414,230,o),
(414,189,qs),
(414,148,o),
(468,104,o),
(504,104,qs),
(520,104,o),
(549,115,o),
(561,127,q),
(506,212,l),
(517,111,l),
(518,58,o),
(452,-24,o),
(387,-50,q),
(417,-122,l),
(508,-91,o)
);
},
{
closed = 1;
nodes = (
(590,574,o),
(590,612,qs),
(590,651,o),
(537,701,o),
(500,701,qs),
(463,701,o),
(410,651,o),
(410,612,qs),
(410,574,o),
(463,524,o),
(500,524,qs),
(537,524,o)
);
}
);
vertWidth = 1000;
width = 1000;
}
);
note = uniFF1B;
unicode = 65307;
},
{
glyphname = colon.full.vert;
lastChange = "2023-08-27 05:59:53 +0000";
layers = (
{
layerId = m01;
shapes = (
{
closed = 1;
nodes = (
(349,334,o),
(349,373,qs),
(349,412,o),
(297,461,o),
(260,461,qs),
(223,461,o),
(170,412,o),
(170,373,qs),
(170,334,o),
(223,283,o),
(260,283,qs),
(297,283,o)
);
},
{
closed = 1;
nodes = (
(830,334,o),
(830,373,qs),
(830,412,o),
(777,461,o),
(740,461,qs),
(703,461,o),
(651,412,o),
(651,373,qs),
(651,334,o),
(703,283,o),
(740,283,qs),
(777,283,o)
);
}
);
vertWidth = 1000;
width = 1000;
}
);
note = glyph17776;
},
{
glyphname = angleLeft;
layers = (
{
layerId = m01;
shapes = (
{
closed = 1;
nodes = (
(947,812,l),
(858,850,l),
(568,380,l),
(858,-90,l),
(947,-52,l),
(680,380,l)
);
}
);
vertWidth = 1000;
width = 1000;
}
);
note = uni2329;
unicode = (9001,12296);
},
{
glyphname = angleRight;
layers = (
{
layerId = m01;
shapes = (
{
closed = 1;
nodes = (
(432,380,l),
(142,850,l),
(53,812,l),
(320,380,l),
(53,-52,l),
(142,-90,l)
);
}
);
vertWidth = 1000;
width = 1000;
}
);
note = uni3009;
unicode = (9002,12297);
},
{
glyphname = blacklenticularbracketleft;
layers = (
{
layerId = m01;
shapes = (
{
closed = 1;
nodes = (
(662,850,l),
(662,-90,l),
(970,-90,l),
(970,-85,l),
(916,-38,o),
(826,101,o),
(772,278,o),
(772,380,qs),
(772,483,o),
(826,659,o),
(916,799,o),
(970,845,q),
(970,850,l)
);
}
);
vertWidth = 1000;
width = 1000;
}
);
note = uni3010;
unicode = 12304;
},
{
glyphname = blacklenticularbracketright;
layers = (
{
layerId = m01;
shapes = (
{
closed = 1;
nodes = (
(30,850,l),
(30,845,l),
(85,799,o),
(174,659,o),
(228,483,o),
(228,380,qs),
(228,278,o),
(174,101,o),
(85,-38,o),
(30,-85,q),
(30,-90,l),
(338,-90,l),
(338,850,l)
);
}
);
vertWidth = 1000;
width = 1000;
}
);
note = uni3011;
unicode = 12305;
},
{
glyphname = braceleft.full;
layers = (
{
layerId = m01;
shapes = (
{
closed = 1;
nodes = (
(969,-26,l),
(938,-26,ls),
(898,-26,o),
(872,13,o),
(872,63,qs),
(872,111,o),
(876,200,o),
(876,253,qs),
(876,312,o),
(841,368,o),
(802,378,q),
(802,382,l),
(841,393,o),
(876,449,o),
(876,507,qs),
(876,561,o),
(872,650,o),
(872,697,qs),
(872,748,o),
(898,786,o),
(938,786,qs),
(969,786,l),
(969,856,l),
(910,856,ls),
(841,856,o),
(774,791,o),
(774,703,qs),
(774,664,o),
(780,600,o),
(785,539,o),
(785,502,qs),
(785,482,o),
(767,444,o),
(727,419,o),
(690,418,q),
(690,343,l),
(727,342,o),
(767,317,o),
(785,279,o),
(785,259,qs),
(785,223,o),
(780,161,o),
(774,97,o),
(774,57,qs),
(774,-30,o),
(841,-95,o),
(910,-95,qs),
(969,-95,l)
);
}
);
vertWidth = 1000;
width = 1000;
}
);
note = uniFF5B;
unicode = 65371;
},
{
glyphname = braceright.full;
layers = (
{
layerId = m01;
shapes = (
{
closed = 1;
nodes = (
(31,-26,l),
(62,-26,ls),
(102,-26,o),
(128,13,o),
(128,63,qs),
(128,111,o),
(124,200,o),
(124,253,qs),
(124,312,o),
(159,368,o),
(198,378,q),
(198,382,l),
(159,393,o),
(124,449,o),
(124,507,qs),
(124,561,o),
(128,650,o),
(128,697,qs),
(128,748,o),
(102,786,o),
(62,786,qs),
(31,786,l),
(31,856,l),
(90,856,ls),
(159,856,o),
(226,791,o),
(226,703,qs),
(226,664,o),
(221,600,o),
(215,539,o),
(215,502,qs),
(215,482,o),
(233,444,o),
(274,419,o),
(310,418,q),
(310,343,l),
(274,342,o),
(233,317,o),
(215,279,o),
(215,259,qs),
(215,223,o),
(221,161,o),
(226,97,o),
(226,57,qs),
(226,-30,o),
(159,-95,o),
(90,-95,qs),
(31,-95,l)
);
}
);
vertWidth = 1000;
width = 1000;
}
);
note = uniFF5D;
unicode = 65373;
},
{
glyphname = cornerbracketleft;
layers = (
{
layerId = m01;
shapes = (
{
closed = 1;
nodes = (
(749,209,l),
(749,753,l),
(970,753,l),
(970,850,l),
(643,850,l),
(643,209,l)
);
}
);
vertWidth = 1000;
width = 1000;
}
);
note = uni300C;
unicode = 12300;
},
{
glyphname = cornerbracketright;
layers = (
{
layerId = m01;
shapes = (
{
closed = 1;
nodes = (
(251,551,l),
(251,7,l),
(30,7,l),
(30,-90,l),
(357,-90,l),
(357,551,l)
);
}
);
vertWidth = 1000;
width = 1000;
}
);
note = uni300D;
unicode = 12301;
},
{
glyphname = dblanglebracketleft;
layers = (
{
layerId = m01;
shapes = (
{
closed = 1;
nodes = (
(802,827,l),
(726,850,l),
(521,380,l),
(726,-90,l),
(802,-67,l),
(605,380,l)
);
},
{
closed = 1;
nodes = (
(970,827,l),
(895,850,l),
(690,380,l),
(895,-90,l),
(970,-67,l),
(773,380,l)
);
}
);
vertWidth = 1000;
width = 1000;
}
);
note = uni300A;
unicode = 12298;
},
{
glyphname = dblanglebracketright;
layers = (
{
layerId = m01;
shapes = (
{
closed = 1;
nodes = (
(478,380,l),
(273,850,l),
(198,827,l),
(395,380,l),
(198,-67,l),
(273,-90,l)
);
},
{
closed = 1;
nodes = (
(310,380,l),
(105,850,l),
(30,827,l),
(226,380,l),
(30,-67,l),
(105,-90,l)
);
}
);
vertWidth = 1000;
width = 1000;
}
);
note = uni300B;
unicode = 12299;
},
{
glyphname = tortoiseshellbracketleft;
layers = (
{
layerId = m01;
shapes = (
{
closed = 1;
nodes = (
(971,-31,l),
(797,80,l),
(797,680,l),
(971,791,l),
(927,862,l),
(698,715,l),
(698,45,l),
(927,-102,l)
);
}
);
vertWidth = 1000;
width = 1000;
}
);
note = uni3014;
unicode = 12308;
},
{
glyphname = tortoiseshellbracketright;
layers = (
{
layerId = m01;
shapes = (
{
closed = 1;
nodes = (
(29,-31,l),
(203,80,l),
(203,680,l),
(29,791,l),
(73,862,l),
(302,715,l),
(302,45,l),
(73,-102,l)
);
}
);
vertWidth = 1000;
width = 1000;
}
);
note = uni3015;
unicode = 12309;
},
{
glyphname = whitecornerbracketleft;
layers = (
{
layerId = m01;
shapes = (
{
closed = 1;
nodes = (
(970,850,l),
(600,850,l),
(600,189,l),
(786,189,l),
(786,679,l),
(970,679,l)
);
},
{
closed = 1;
nodes = (
(929,719,l),
(745,719,l),
(745,229,l),
(640,229,l),
(640,809,l),
(929,809,l)
);
}
);
vertWidth = 1000;
width = 1000;
}
);
note = uni300E;
unicode = 12302;
},
{
glyphname = whitecornerbracketright;
layers = (
{
layerId = m01;
shapes = (
{
closed = 1;
nodes = (
(30,-90,l),
(400,-90,l),
(400,571,l),
(214,571,l),
(214,81,l),
(30,81,l)
);
},
{
closed = 1;
nodes = (
(71,41,l),
(255,41,l),
(255,531,l),
(360,531,l),
(360,-49,l),
(71,-49,l)
);
}
);
vertWidth = 1000;
width = 1000;
}
);
note = uni300F;
unicode = 12303;
},
{
glyphname = whitelenticularbracketleft;
layers = (
{
layerId = m01;
shapes = (
{
closed = 1;
nodes = (
(891,-36,o),
(773,91,o),
(707,268,o),
(707,380,qs),
(707,492,o),
(773,669,o),
(891,797,o),
(970,833,q),
(970,850,l),
(627,850,l),
(627,-90,l),
(970,-90,l),
(970,-73,l)
);
},
{
closed = 1;
nodes = (
(652,825,l),
(905,825,l),
(870,803,o),
(792,730,o),
(725,622,o),
(682,476,o),
(682,380,qs),
(682,284,o),
(725,138,o),
(792,30,o),
(870,-43,o),
(905,-65,q),
(652,-65,l)
);
}
);
vertWidth = 1000;
width = 1000;
}
);
note = uni3016;
unicode = 12310;
},
{
glyphname = whitelenticularbracketright;
layers = (
{
layerId = m01;
shapes = (
{
closed = 1;
nodes = (
(373,-90,l),
(373,850,l),
(30,850,l),
(30,833,l),
(109,797,o),
(227,669,o),
(293,492,o),
(293,380,qs),
(293,269,o),
(227,91,o),
(109,-36,o),
(30,-73,q),
(30,-90,l)
);
},
{
closed = 1;
nodes = (
(130,-43,o),
(208,30,o),
(275,138,o),
(318,284,o),
(318,380,qs),
(318,476,o),
(275,622,o),
(208,730,o),
(130,803,o),
(95,825,q),
(348,825,l),
(348,-65,l),
(95,-65,l)
);
}
);
vertWidth = 1000;
width = 1000;
}
);
note = uni3017;
unicode = 12311;
},
{
glyphname = anglebracketleft.vert;
layers = (
{
layerId = m01;
shapes = (
{
closed = 1;
nodes = (
(932,-67,l),
(970,22,l),
(500,312,l),
(30,22,l),
(68,-67,l),
(500,200,l)
);
}
);
vertWidth = 1000;
width = 1000;
}
);
note = uniFE3F;
unicode = 65087;
},
{
glyphname = anglebracketright.vert;
layers = (
{
layerId = m01;
shapes = (
{
closed = 1;
nodes = (
(68,827,l),
(30,738,l),
(500,448,l),
(970,738,l),
(932,827,l),
(500,560,l)
);
}
);
vertWidth = 1000;
width = 1000;
}
);
note = uniFE40;
unicode = 65088;
},
{
glyphname = blacklenticularbracketleft.vert;
layers = (
{
layerId = m01;
shapes = (
{
closed = 1;
nodes = (
(970,218,l),
(30,218,l),
(30,-90,l),
(35,-90,l),
(82,-35,o),
(221,54,o),
(398,108,o),
(500,108,qs),
(603,108,o),
(779,54,o),
(919,-35,o),
(965,-90,q),
(970,-90,l)
);
}
);
vertWidth = 1000;
width = 1000;
}
);
note = uniFE3B;
unicode = 65083;
},
{
glyphname = blacklenticularbracketright.vert;
layers = (
{
layerId = m01;
shapes = (
{
closed = 1;
nodes = (
(970,850,l),
(965,850,l),
(919,796,o),
(779,706,o),
(603,652,o),
(500,652,qs),
(398,652,o),
(221,706,o),
(82,796,o),
(35,850,q),
(30,850,l),
(30,542,l),
(970,542,l)
);
}
);
vertWidth = 1000;
width = 1000;
}
);
note = uniFE3C;
unicode = 65084;
},
{
glyphname = bracketleft.full;
layers = (
{
layerId = m01;
shapes = (
{
closed = 1;
nodes = (
(970,-90,l),
(970,-18,l),
(811,-18,l),
(811,778,l),
(970,778,l),
(970,850,l),
(713,850,l),
(713,-90,l)
);
}
);
vertWidth = 1000;
width = 1000;
}
);
note = uniFF3B;
unicode = 65339;
},
{
glyphname = bracketright.full;
layers = (
{
layerId = m01;
shapes = (
{
closed = 1;
nodes = (
(30,-90,l),
(30,-18,l),
(189,-18,l),
(189,778,l),
(30,778,l),
(30,850,l),
(287,850,l),
(287,-90,l)
);
}
);
vertWidth = 1000;
width = 1000;
}
);
note = uniFF3D;
unicode = 65341;
},
{
glyphname = cornerbracketleft.vert;
layers = (
{
layerId = m01;
shapes = (
{
closed = 1;
nodes = (
(278,136,l),
(869,136,l),
(869,-90,l),
(975,-90,l),
(975,237,l),
(278,237,l)
);
}
);
vertWidth = 1000;
width = 1000;
}
);
note = uniFE41;
unicode = 65089;
},
{
glyphname = cornerbracketright.vert;
layers = (
{
layerId = m01;
shapes = (
{
closed = 1;
nodes = (
(722,611,l),
(131,611,l),
(131,837,l),
(25,837,l),
(25,510,l),
(722,510,l)
);
}
);
vertWidth = 1000;
width = 1000;
}
);
note = uniFE42;
unicode = 65090;
},
{
glyphname = dblanglebracketleft.vert;
layers = (
{
layerId = m01;
shapes = (
{
closed = 1;
nodes = (
(947,78,l),
(970,153,l),
(500,358,l),
(30,153,l),
(53,78,l),
(500,275,l)
);
},
{
closed = 1;
nodes = (
(947,-90,l),
(970,-15,l),
(500,190,l),
(30,-15,l),
(53,-90,l),
(500,106,l)
);
}
);
vertWidth = 1000;
width = 1000;
}
);
note = uniFE3D;
unicode = 65085;
},
{
glyphname = dblanglebracketright.vert;
layers = (
{
layerId = m01;
shapes = (
{
closed = 1;
nodes = (
(53,682,l),
(30,607,l),
(500,402,l),
(970,607,l),
(947,682,l),
(500,485,l)
);
},
{
closed = 1;
nodes = (
(53,850,l),
(30,775,l),
(500,570,l),
(970,775,l),
(947,850,l),
(500,654,l)
);
}
);
vertWidth = 1000;
width = 1000;
}
);
note = uniFE3E;
unicode = 65086;
},
{
glyphname = parenleft.full;
layers = (
{
layerId = m01;
shapes = (
{
closed = 1;
nodes = (
(724,100,o),
(814,-43,o),
(870,-99,q),
(955,-60,l),
(903,-4,o),
(821,128,o),
(774,287,o),
(774,380,qs),
(774,474,o),
(821,632,o),
(903,765,o),
(955,820,q),
(870,859,l),
(814,804,o),
(724,660,o),
(672,484,o),
(672,380,qs),
(672,276,o)
);
}
);
vertWidth = 1000;
width = 1000;
}
);
note = uniFF08;
unicode = 65288;
},
{
glyphname = parenright.full;
layers = (
{
layerId = m01;
shapes = (
{
closed = 1;
nodes = (
(276,660,o),
(186,804,o),
(130,859,q),
(45,820,l),
(97,765,o),
(179,632,o),
(226,474,o),
(226,380,qs),
(226,287,o),
(179,128,o),
(97,-4,o),
(45,-60,q),
(130,-99,l),
(186,-43,o),
(276,100,o),
(328,276,o),
(328,380,qs),
(328,484,o)
);
}
);
vertWidth = 1000;
width = 1000;
}
);
note = uniFF09;
unicode = 65289;
},
{
glyphname = tortoiseshellbracketleft.vert;
layers = (
{
layerId = m01;
shapes = (
{
closed = 1;
nodes = (
(89,-91,l),
(200,83,l),
(800,83,l),
(911,-91,l),
(982,-47,l),
(835,182,l),
(165,182,l),
(18,-47,l)
);
}
);
vertWidth = 1000;
width = 1000;
}
);
note = uniFE39;
unicode = 65081;
},
{
glyphname = tortoiseshellbracketright.vert;
layers = (
{
layerId = m01;
shapes = (
{
closed = 1;
nodes = (
(89,851,l),
(200,677,l),
(800,677,l),
(911,851,l),
(982,807,l),
(835,578,l),
(165,578,l),
(18,807,l)
);
}
);
vertWidth = 1000;
width = 1000;
}
);
note = uniFE3A;
unicode = 65082;
},
{
glyphname = whitecornerbracketleft.vert;
layers = (
{
layerId = m01;
shapes = (
{
closed = 1;
nodes = (
(970,-90,l),
(970,265,l),
(309,265,l),
(309,93,l),
(789,93,l),
(789,-90,l)
);
},
{
closed = 1;
nodes = (
(829,-49,l),
(829,134,l),
(349,134,l),
(349,224,l),
(929,224,l),
(929,-49,l)
);
}
);
vertWidth = 1000;
width = 1000;
}
);
note = uniFE43;
unicode = 65091;
},
{
glyphname = whitecornerbracketright.vert;
layers = (
{
layerId = m01;
shapes = (
{
closed = 1;
nodes = (
(30,850,l),
(30,495,l),
(691,495,l),
(691,667,l),
(211,667,l),
(211,850,l)
);
},
{
closed = 1;
nodes = (
(171,809,l),
(171,626,l),
(651,626,l),
(651,536,l),
(71,536,l),
(71,809,l)
);
}
);
vertWidth = 1000;
width = 1000;
}
);
note = uniFE44;
unicode = 65092;
},
{
glyphname = whitelenticularbracketleft.vert;
layers = (
{
layerId = m01;
shapes = (
{
closed = 1;
nodes = (
(84,-11,o),
(211,107,o),
(388,173,o),
(500,173,qs),
(612,173,o),
(789,107,o),
(917,-11,o),
(953,-90,q),
(970,-90,l),
(970,253,l),
(30,253,l),
(30,-90,l),
(47,-90,l)
);
},
{
closed = 1;
nodes = (
(945,228,l),
(945,-25,l),
(923,10,o),
(850,88,o),
(742,155,o),
(596,198,o),
(500,198,qs),
(404,198,o),
(258,155,o),
(150,88,o),
(77,10,o),
(55,-25,q),
(55,228,l)
);
}
);
vertWidth = 1000;
width = 1000;
}
);
note = uniFE17;
unicode = 65047;
},
{
glyphname = whitelenticularbracketright.vert;
layers = (
{
layerId = m01;
shapes = (
{
closed = 1;
nodes = (
(30,507,l),
(970,507,l),
(970,850,l),
(953,850,l),
(917,771,o),
(789,653,o),
(612,587,o),
(500,587,qs),
(389,587,o),
(211,653,o),
(84,771,o),
(47,850,q),
(30,850,l)
);
},
{
closed = 1;
nodes = (
(77,750,o),
(150,672,o),
(258,605,o),
(404,562,o),
(500,562,qs),
(596,562,o),
(742,605,o),
(850,672,o),
(923,750,o),
(945,785,q),
(945,532,l),
(55,532,l),
(55,785,l)
);
}
);
vertWidth = 1000;
width = 1000;
}
);
note = uniFE18;
unicode = 65048;
},
{
glyphname = braceleft.full.vert;
layers = (
{
layerId = m01;
shapes = (
{
closed = 1;
nodes = (
(94,-89,l),
(94,-58,ls),
(94,-18,o),
(133,8,o),
(183,8,qs),
(231,8,o),
(320,4,o),
(373,4,qs),
(432,4,o),
(488,39,o),
(498,78,q),
(502,78,l),
(513,39,o),
(569,4,o),
(627,4,qs),
(681,4,o),
(770,8,o),
(817,8,qs),
(868,8,o),
(906,-18,o),
(906,-58,qs),
(906,-89,l),
(976,-89,l),
(976,-30,ls),
(976,39,o),
(911,106,o),
(823,106,qs),
(784,106,o),
(720,101,o),
(659,95,o),
(622,95,qs),
(602,95,o),
(564,113,o),
(539,154,o),
(538,190,q),
(463,190,l),
(462,154,o),
(437,113,o),
(399,95,o),
(379,95,qs),
(343,95,o),
(281,101,o),
(217,106,o),
(177,106,qs),
(90,106,o),
(25,39,o),
(25,-30,qs),
(25,-89,l)
);
}
);
vertWidth = 1000;
width = 1000;
}
);
note = uniFE37;
unicode = 65079;
},
{
glyphname = braceright.full.vert;
layers = (
{
layerId = m01;
shapes = (
{
closed = 1;
nodes = (
(906,849,l),
(906,818,ls),
(906,778,o),
(867,752,o),
(817,752,qs),
(769,752,o),
(680,756,o),
(627,756,qs),
(569,756,o),
(512,721,o),
(502,682,q),
(498,682,l),
(488,721,o),
(431,756,o),
(373,756,qs),
(319,756,o),
(230,752,o),
(183,752,qs),
(132,752,o),
(94,778,o),
(94,818,qs),
(94,849,l),
(24,849,l),
(24,790,ls),
(24,721,o),
(89,654,o),
(177,654,qs),
(217,654,o),
(280,660,o),
(342,665,o),
(378,665,qs),
(399,665,o),
(436,647,o),
(461,607,o),
(462,570,q),
(537,570,l),
(538,607,o),
(563,647,o),
(601,665,o),
(621,665,qs),
(658,665,o),
(719,660,o),
(783,654,o),
(823,654,qs),
(910,654,o),
(975,721,o),
(975,790,qs),
(975,849,l)
);
}
);
vertWidth = 1000;
width = 1000;
}
);
note = uniFE38;
unicode = 65080;
},
{
glyphname = bracketleft.full.vert;
layers = (
{
layerId = m01;
shapes = (
{
closed = 1;
nodes = (
(30,-90,l),
(102,-90,l),
(102,69,l),
(898,69,l),
(898,-90,l),
(970,-90,l),
(970,167,l),
(30,167,l)
);
}
);
vertWidth = 1000;
width = 1000;
}
);
note = uniFE47;
unicode = 65095;
},
{
glyphname = bracketright.full.vert;
layers = (
{
layerId = m01;
shapes = (
{
closed = 1;
nodes = (
(30,850,l),
(102,850,l),
(102,691,l),
(898,691,l),
(898,850,l),
(970,850,l),
(970,593,l),
(30,593,l)
);
}
);
vertWidth = 1000;
width = 1000;
}
);
note = uniFE48;
unicode = 65096;
},
{
glyphname = parenleft.full.vert;
layers = (
{
layerId = m01;
shapes = (
{
closed = 1;
nodes = (
(220,156,o),
(77,66,o),
(21,10,q),
(60,-75,l),
(116,-23,o),
(248,59,o),
(407,106,o),
(500,106,qs),
(594,106,o),
(752,59,o),
(885,-23,o),
(940,-75,q),
(979,10,l),
(924,66,o),
(780,156,o),
(604,208,o),
(500,208,qs),
(396,208,o)
);
}
);
vertWidth = 1000;
width = 1000;
}
);
note = uniFE35;
unicode = 65077;
},
{
glyphname = parenright.full.vert;
layers = (
{
layerId = m01;
shapes = (
{
closed = 1;
nodes = (
(780,604,o),
(924,694,o),
(979,750,q),
(940,835,l),
(885,783,o),
(752,701,o),
(594,654,o),
(500,654,qs),
(407,654,o),
(248,701,o),
(116,783,o),
(60,835,q),
(21,750,l),
(77,694,o),
(220,604,o),
(396,552,o),
(500,552,qs),
(604,552,o)
);
}
